<?xml version="1.0" encoding="UTF-8" standalone="no"?>
<svg xmlns="http://www.w3.org/2000/svg" width="1000" height="600">
<title>US Electoral College</title>
<text id="cc" font-family="Arial" font-size="6" x="3" y="595">www.github.com/morrinkt/election-mapper. This file is licensed under the Creative Commons Attribution-Share Alike 4.0 International license.</text>
<g id="states">
	<path id="AK" fill="#C0C0C0" transform="scale(0.80) translate(-73 161) rotate(-12)" d="M161.1,453.7l-0.3,85.4l1.6,1l3.1,0.2l1.5-1.1h2.6l0.2,2.9l7,6.8l0.5,2.6l3.4-1.9l0.6-0.2l0.3-3.1 l1.5-1.6l1.1-0.2l1.9-1.5l3.1,2.1l0.6,2.9l1.9,1.1l1.1,2.4l3.9,1.8l3.4,6l2.7,3.9l2.3,2.7l1.5,3.7l5,1.8l5.2,2.1l1,4.4l0.5,3.1 l-1,3.4l-1.8,2.3l-1.6-0.8l-1.5-3.1l-2.7-1.5l-1.8-1.1l-0.8,0.8l1.5,2.7l0.2,3.7l-1.1,0.5l-1.9-1.9l-2.1-1.3l0.5,1.6l1.3,1.8 l-0.8,0.8c0,0-0.8-0.3-1.3-1c-0.5-0.6-2.1-3.4-2.1-3.4l-1-2.3c0,0-0.3,1.3-1,1c-0.6-0.3-1.3-1.5-1.3-1.5l1.8-1.9l-1.5-1.5v-5h-0.8 l-0.8,3.4l-1.1,0.5l-1-3.7l-0.6-3.7l-0.8-0.5l0.3,5.7v1.1l-1.5-1.3l-3.6-6l-2.1-0.5l-0.6-3.7l-1.6-2.9l-1.6-1.1v-2.3l2.1-1.3 l-0.5-0.3l-2.6,0.6l-3.4-2.4l-2.6-2.9l-4.8-2.6l-4-2.6l1.3-3.2v-1.6l-1.8,1.6l-2.9,1.1l-3.7-1.1l-5.7-2.4h-5.5l-0.6,0.5l-6.5-3.9 l-2.1-0.3l-2.7-5.8l-3.6,0.3l-3.6,1.5l0.5,4.5l1.1-2.9l1,0.3l-1.5,4.4l3.2-2.7l0.6,1.6l-3.9,4.4l-1.3-0.3l-0.5-1.9l-1.3-0.8 l-1.3,1.1l-2.7-1.8l-3.1,2.1l-1.8,2.1l-3.4,2.1l-4.7-0.2l-0.5-2.1l3.7-0.6v-1.3l-2.3-0.6l1-2.4l2.3-3.9v-1.8l0.2-0.8l4.4-2.3l1,1.3 h2.7l-1.3-2.6l-3.7-0.3l-5,2.7l-2.4,3.4l-1.8,2.6l-1.1,2.3l-4.2,1.5l-3.1,2.6l-0.3,1.6l2.3,1l0.8,2.1l-2.7,3.2l-6.5,4.2l-7.8,4.2 l-2.1,1.1l-5.3,1.1l-5.3,2.3l1.8,1.3l-1.5,1.5l-0.5,1.1l-2.7-1l-3.2,0.2l-0.8,2.3h-1l0.3-2.4l-3.6,1.3l-2.9,1l-3.4-1.3l-2.9,1.9 h-3.2l-2.1,1.3l-1.6,0.8l-2.1-0.3l-2.6-1.1l-2.3,0.6l-1,1l-1.6-1.1v-1.9l3.1-1.3l6.3,0.6l4.4-1.6l2.1-2.1l2.9-0.6l1.8-0.8l2.7,0.2 l1.6,1.3l1-0.3l2.3-2.7l3.1-1l3.4-0.6l1.3-0.3l0.6,0.5h0.8l1.3-3.7l4-1.5l1.9-3.7l2.3-4.5l1.6-1.5l0.3-2.6l-1.6,1.3l-3.4,0.6 l-0.6-2.4l-1.3-0.3l-1,1l-0.2,2.9l-1.5-0.2l-1.5-5.8l-1.3,1.3l-1.1-0.5l-0.3-1.9l-4,0.2l-2.1,1.1l-2.6-0.3l1.5-1.5l0.5-2.6 l-0.6-1.9l1.5-1l1.3-0.2l-0.6-1.8v-4.4l-1-1l-0.8,1.5h-6.1l-1.5-1.3l-0.6-3.9l-2.1-3.6v-1l2.1-0.8l0.2-2.1l1.1-1.1l-0.8-0.5 l-1.3,0.5l-1.1-2.7l1-5l4.5-3.2l2.6-1.6l1.9-3.7l2.7-1.3l2.6,1.1l0.3,2.4l2.4-0.3l3.2-2.4l1.6,0.6l1,0.6h1.6l2.3-1.3l0.8-4.4 c0,0,0.3-2.9,1-3.4c0.6-0.5,1-1,1-1l-1.1-1.9l-2.6,0.8l-3.2,0.8l-1.9-0.5l-3.6-1.8l-5-0.2l-3.6-3.7l0.5-3.9l0.6-2.4l-2.1-1.8 l-1.9-3.7l0.5-0.8l6.8-0.5h2.1l1,1h0.6l-0.2-1.6l3.9-0.6l2.6,0.3l1.5,1.1l-1.5,2.1l-0.5,1.5l2.7,1.6l5,1.8l1.8-1l-2.3-4.4l-1-3.2 l1-0.8l-3.4-1.9l-0.5-1.1l0.5-1.6l-0.8-3.9l-2.9-4.7l-2.4-4.2l2.9-1.9h3.2l1.8,0.6l4.2-0.2l3.7-3.6l1.1-3.1l3.7-2.4l1.6,1l2.7-0.6 l3.7-2.1l1.1-0.2l1,0.8l4.5-0.2l2.7-3.1h1.1l3.6,2.4l1.9,2.1l-0.5,1.1l0.6,1.1l1.6-1.6l3.9,0.3l0.3,3.7l1.9,1.5l7.1,0.6l6.3,4.2 l1.5-1l5.2,2.6l2.1-0.6l1.9-0.8l4.8,1.9L161.1,453.7z M46,482.6l2.1,5.3l-0.2,1l-2.9-0.3l-1.8-4l-1.8-1.5H39l-0.2-2.6l1.8-2.4 l1.1,2.4l1.5,1.5L46,482.6z M43.4,516.1l3.7,0.8l3.7,1l0.8,1l-1.6,3.7l-3.1-0.2l-3.4-3.6L43.4,516.1z M22.7,502l1.1,2.6 l1.1,1.6l-1.1,0.8l-2.1-3.1V502H22.7z M9,575.1l3.4-2.3l3.4-1l2.6,0.3l0.5,1.6l1.9,0.5l1.9-1.9l-0.3-1.6l2.7-0.6l2.9,2.6 l-1.1,1.8l-4.4,1.1l-2.7-0.5l-3.7-1.1l-4.4,1.5l-1.6,0.3L9,575.1z M57.9,570.6l1.6,1.9l2.1-1.6l-1.5-1.3L57.9,570.6z M60.8,573.6l1.1-2.3l2.1,0.3l-0.8,1.9H60.8z M84.4,571.7l1.5,1.8l1-1.1l-0.8-1.9L84.4,571.7z M93.2,559.2l1.1,5.8l2.9,0.8 l5-2.9l4.4-2.6l-1.6-2.4l0.5-2.4l-2.1,1.3l-2.9-0.8l1.6-1.1l1.9,0.8l3.9-1.8l0.5-1.5l-2.4-0.8l0.8-1.9l-2.7,1.9l-4.7,3.6l-4.8,2.9L93.2,559.2z M135.5,539.4l2.4-1.5l-1-1.8l-1.8,1L135.5,539.4z"/>
	<path id="HI" fill="#C0C0C0" d="M233.1,519.3l1.9-3.6l2.3-0.3l0.3,0.8l-2.1,3.1H233.1z M243.3,515.6l6.1,2.6l2.1-0.3l1.6-3.9 l-0.6-3.4l-4.2-0.5l-4,1.8L243.3,515.6z M274,525.6l3.7,5.5l2.4-0.3l1.1-0.5l1.5,1.3l3.7-0.2l1-1.5l-2.9-1.8l-1.9-3.7l-2.1-3.6 l-5.8,2.9L274,525.6z M294.2,534.5l1.3-1.9l4.7,1l0.6-0.5l6.1,0.6l-0.3,1.3l-2.6,1.5l-4.4-0.3L294.2,534.5z M299.5,539.7l1.9,3.9 l3.1-1.1l0.3-1.6l-1.6-2.1l-3.7-0.3V539.7z M306.5,538.5l2.3-2.9l4.7,2.4l4.4,1.1l4.4,2.7v1.9l-3.6,1.8l-4.8,1l-2.4-1.5 L306.5,538.5z M323.1,554.1l1.6-1.3l3.4,1.6l7.6,3.6l3.4,2.1l1.6,2.4l1.9,4.4l4,2.6l-0.3,1.3l-3.9,3.2l-4.2,1.5l-1.5-0.6l-3.1,1.8 l-2.4,3.2l-2.3,2.9l-1.8-0.2l-3.6-2.6l-0.3-4.5l0.6-2.4l-1.6-5.7l-2.1-1.8l-0.2-2.6l2.3-1l2.1-3.1l0.5-1l-1.6-1.8L323.1,554.1z"/>
	<path id="AL" d="M628.5,466.4 629.1,466.6 630.4,463.9 631.9,459.5 634.2,460.1 637.3,466.1 637.3,467.1 634.6,469 637.3,469.3 642.5,466.8 642.2,459.2 639.7,457.4 637.7,455.4 638.1,451.4 648.6,449.9 674.3,447 681,446.4 686.6,446.5 686.1,444.3 684.6,443.5 683.7,442.4 684.7,439.8 684.3,434.6 682.7,430.1 683.5,425 685.2,420.2 685,418.5 683.2,417.8 682.7,414.2 680,410.8 678,404.3 676.6,397.6 674.8,392.6 671,376.6 667.5,368.7 666.7,363.1 666.8,360.9 657.8,361.7 634.4,363.9 622.2,364.7 622,371.1 622.2,387.8 621.5,418.8 621.2,432.9 624,451.7 625.6,466.4 z" fill="#C0C0C0"/>
	<path id="AR" d="M587.3,346.1 580.9,345.4 581.8,342.3 584.9,339.7 585.5,337.4 583.7,334.5 551.8,335.7 528.5,336.4 504.9,336.7 506.4,343.6 506.5,352.1 507.9,363 508.2,401.2 510.3,402.8 513.3,401.6 516.2,402.8 516.6,412.9 541.8,412.7 568.6,411.9 569.5,410 569.2,406.2 567.5,403.1 569,401.7 567.6,399.5 568.3,397.1 569.4,391.2 572.1,388.9 571.3,386.7 575.3,381.1 577.8,380 577.7,378.3 577.2,376.6 580.1,370.8 582.6,369.7 582.8,366.4 584.9,365 585.8,360.9 584.4,356.9 588.6,354.5 588.9,352.4 590.1,348.2 591,345.1 z" fill="#C0C0C0"/>
	<path id="AZ" d="M135.1,389.7 134.8,391.2 135.3,392.2 154.2,402.9 166.3,410.5 181,419.1 197.8,429.1 210.1,431.5 235.5,434.2 241.5,394.6 248.5,341.5 252.9,310.5 228.3,306.9 167.6,295.9 167.4,297 164.8,313.5 162.7,317.3 159.9,317.1 158.7,314.5 156.1,314.1 154.9,313 153.8,313.1 151.7,314.8 151.4,321.6 151.1,323.1 150.6,335.6 149.1,338 148.7,341.3 151.5,346.3 152.6,351.8 153.3,352.9 154.4,353.8 154,356.2 152.3,357.4 148.9,359 147.3,360.8 145.7,364.4 145.2,369.3 142.2,372.2 140.3,373.1 140.2,378.9 139.6,380.5 140.1,381.3 144,381.7 143.1,384.7 141.4,387.1 137.7,387.5 z" fill="#C0C0C0"/>
	<path id="CA" d="M122.7,385.9 103,383.2 93,381.7 92.5,379.9 92.5,370.5 92.2,367.3 89.6,363.1 88.8,360.8 84.9,356.6 82,351.9 79.3,351.7 76.1,350.9 75.8,349.9 77.3,349.3 76.7,346.1 75.2,344 70.4,343.2 66.5,341.1 65.4,338.8 62.8,334 59.9,330.9 57,330.9 53.1,328.8 48.6,327 44.4,326.5 42,323.8 42.5,321.9 44.3,314.8 45.1,312.9 45.1,310.5 43.5,309.5 43,306.6 41.5,304 38.1,298.2 36.8,295.1 35.3,290.4 33.7,285.1 30.5,280.7 30,277.8 30.8,273.9 31.9,273.9 34,272.3 35.1,268.7 34.1,266 31.4,265.5 29.5,262.9 27.4,259.2 27.2,251 27.8,249.1 28.4,246.8 28.9,244.4 23.2,238.1 23.2,236 23.5,235.5 23.8,232.3 22.5,228.3 20.2,223.5 17.5,219 15.7,215.1 16.7,211.4 17.3,205.6 19.1,202.5 19.4,196 18.3,192.4 16.7,188.2 14,184 14.8,180.8 16.3,176.6 18.1,175.8 18.4,174.7 21.5,172.1 26.7,160.3 26.9,152.9 28.59,148 67.28,159.8 92.88,166.4 84.88,197.7 76.21,230.8 88.84,250 131,312.3 148.1,338.4 147.7,341.5 150.5,346.7 151.6,352.1 152.6,353.6 153.3,354.2 153.1,355.6 151.7,356.6 148.3,358.2 146.4,360.3 144.7,364.2 144.2,368.9 141.6,371.4 139.3,372.5 139.2,378.7 138.6,380.6 139.6,382.3 142.6,382.6 142.2,384.2 140.8,386.2 136.9,386.8 zM48.8,337l1.3,1.5l-0.2,1.3l-3.2-0.1 l-0.6-1.2l-0.6-1.5L48.8,337z M50.7,337l1.2-0.6l3.6,2.1l3.1,1.2l-0.9,0.6l-4.5-0.2l-1.6-1.6L50.7,337z M71.4,356.8l1.8,2.3 l0.8,1l1.5,0.6l0.6-1.5l-1-1.8l-2.7-2l-1.1,0.2V356.8z M70,365.5l1.8,3.2l1.2,1.9l-1.5,0.2l-1.3-1.2c0,0-0.7-1.5-0.7-1.9 s0-2.2,0-2.2L70,365.5z" fill="#C0C0C0"/>
	<path id="CO" d="M380.2,235.5 344.2,232 265.1,223.4 262.9,245.5 255.9,295.9 254,309.6 288,313.5 325.5,317.9 360.2,320.9 374.5,321.5 z" fill="#C0C0C0"/>
	<path id="CT" d="M852,190.9 855.6,187.7 857.5,185.6 858.3,186.2 861,184.7 866.2,183.6 873.2,180.1 872.6,175.9 871.8,171.5 870.2,165.5 865.9,166.6 844.1,171.3 844.7,174.4 846.2,181.7 846.2,190 845.3,192.1 847,194.3 z" fill="#C0C0C0"/>
	<path id="DE" d="M834.4,247.2 833.4,247.7 829.8,245.3 828,240.6 826.1,237 823.8,236 821.7,232.4 822.2,230.4 822.7,228.1 822.8,227 822.2,227.1 820.5,228.1 818.5,229.8 818.3,230.1 819.7,234.2 822,239.8 825.7,255.9 830.7,255.6 836.7,254.5 z" fill="#C0C0C0"/>
	<path id="FL" d="M750.2,445.2 745,444.5 744.3,445.3 745.8,449.7 745.4,454.9 741.3,453.9 741.1,451.1 737,451.1 731.7,451.8 699.3,453.7 691.1,453.4 689.4,451.7 686.9,447.5 681,447.5 674.4,448 639,452.2 638.7,455 640.3,456.6 643.2,458.6 643.5,467 646.8,466.4 652.8,464.3 658.8,463.8 663.2,463.2 670.8,465 678.9,468.9 680.5,470.4 683.4,471.5 685,473.4 685.3,476.1 688.5,474.8 692.4,474.8 696,472.9 699.7,469.3 702.8,469.5 703.3,468.4 702.5,467.4 702.7,465.5 706.7,464.7 709.3,464.7 712.2,466.2 716.4,467.7 718.8,471.4 721.5,472.4 722.6,475.8 726,477.4 727.6,480 729.5,480.6 734.7,481.9 736,485 739,488.7 739,498.2 737.5,502.9 737.8,505.6 739.1,510.4 740.9,514.4 741.7,513.9 743.2,509.4 740.6,508.4 740.3,507.8 741.9,507.2 746.4,508.2 746.6,509.8 743.4,515.3 741.3,517.7 744.9,521.4 747.5,524.5 750.4,529.8 753.3,533.7 755.4,538.7 757.2,539 758.8,536.9 760.6,538 763.2,542 763.8,545.6 766.9,550 767.7,548.7 771.6,549 775.2,551.3 778.6,556.5 779.4,559.9 779.7,562.8 780.8,563.8 782.1,564.3 784.5,563.3 786,561.7 789.9,561.5 793,560 795.7,556.8 795.2,554.9 794.9,552.5 795.5,550.6 795.2,548.7 797.6,547.4 797.9,544 797.3,542.2 796.8,530.2 795.5,522.6 791,514.4 787.4,508.6 784.8,503.3 781.9,500.4 779,493 779.7,491.6 780.8,490.3 779.2,487.4 775.2,483.7 770.4,478.2 766.7,471.9 761.4,462.5 757.7,452.8 755.4,445.5 z M767.9,577.9l2.4-0.6l1.3-0.2l1.5-2.3l2.3-1.6l1.3,0.5l1.7,0.3l0.4,1.1l-3.5,1.2l-4.2,1.5l-2.3,1.2L767.9,577.9z M781.4,572.9l1.2,1.1l2.7-2.1l5.3-4.2l3.7-3.9l2.5-6.6l1-1.7l0.2-3.4l-0.7,0.5l-1,2.8l-1.5,4.6l-3.2,5.3l-4.4,4.2l-3.4,1.9 L781.4,572.9z" fill="#C0C0C0"/>
	<path id="GA" d="M750.2,444.2 744.6,443.5 743.2,445.1 744.8,449.8 744.5,453.7 742.3,453.1 742.1,450.1 736.9,450.1 731.6,450.8 699.3,452.7 691.6,452.4 690.2,451.2 687.7,446.9 686.9,443.6 685.3,442.7 684.8,442.2 685.7,440 685.3,434.5 683.7,430 684.5,425.1 686.2,420.3 686,417.8 684.1,417.1 683.7,413.9 680.9,410.4 679,404.2 677.5,397.2 675.8,392.4 672,376.4 668.5,368.4 667.7,363.1 667.8,360.8 671.1,360.5 684.7,358.9 703.3,356.9 709.6,355.8 710.1,357.2 707.9,358.1 707,360.3 707.4,362.3 708.8,363.9 713.1,366.6 716.3,366.5 719.5,371.2 720.1,372.8 722.4,375.6 722.9,377.3 727.6,379.1 730.6,381.3 732.9,384.3 735.2,385.6 737.2,387.4 738.6,390.1 740.7,392 744.8,393.8 747.5,399.8 749.2,404.9 752,405.6 754.1,407.5 756.1,413.2 759,414.8 760.7,414 761.1,415.2 757.8,421.4 758.3,424 756.8,428.2 754.5,438.2 755.3,444.5 z" fill="#C0C0C0"/>
	<path id="IA" d="M556.8,183.6 558.9,185.7 559.2,186.4 557.2,189.4 557.5,193.4 560.1,197.5 563.2,199.1 565.6,199.4 566.5,201.2 566.7,203.6 569.2,204.6 570.1,205.7 570.6,207.3 574.4,210.6 575,212.5 574.3,215.5 572.6,219.2 572,221.6 569.9,223.2 568.3,223.7 562.6,225.2 561,230 561.8,231.8 563.5,233.3 563.3,236.8 561.4,238.2 560.7,240 560.7,242.4 559.3,242.8 557.6,244.2 557.1,245.9 557.5,247.6 556.2,248.6 553.9,245.9 552.5,243.1 544.2,243.9 534.2,244.5 485,245.7 483.4,241.4 483,234.7 481.6,230.5 480.9,225.3 478.7,221.6 477.7,217 475,209.2 473.9,203.6 472.5,201.7 471.2,198.8 472.9,195 474.1,188.9 471.4,186.7 471.1,184.3 471.8,181.9 473.6,181.6 534.7,181 555.9,180.3 z" fill="#C0C0C0"/>
	<path id="ID" d="M175.3,27.63 170.5,45.04 166,65.9 162.6,82.12 162.2,91.79 163.4,96.23 166.9,98.89 166.7,102.8 162.8,107.2 158.3,113.8 157.4,116.7 156.2,117.8 154.4,118.6 150.1,123.9 149.7,127 149.3,128.1 149.9,129.1 152.5,129 153.6,131.3 151.2,137.1 150,141.3 141.2,176.6 161.9,181.1 201.4,189 236.2,195.1 241.1,165.9 244.9,141.8 242.2,139.4 241.8,136.8 241,135.7 238.9,136.7 238.2,139.3 235,139.8 231.1,138.2 227.3,138.3 224.8,139 221.4,137.5 219,137.7 216.6,139.7 214.6,138.6 213.9,134.6 214.6,131.7 212.1,128.8 208.8,126.2 206.1,113.1 206,108.4 205.7,108.3 205.5,108.7 200.4,112.2 198.7,112 195.8,108.6 195.6,105.5 202.6,88.37 202.2,86.43 198.8,85.28 198.2,84.1 195.6,80.64 191,70.41 187.8,68.88 185.8,63.93 187.1,59.3 183.9,51.72 188.3,30.2 z" fill="#C0C0C0"/>
	<path id="IL" d="M618.7,214.3 617.9,211.7 616.6,208 615,206.2 613.5,203.6 613.1,198.1 597.2,199.9 579.8,200.9 567.5,200.9 567.7,203 569.9,203.9 571,205.3 571.4,206.7 575.3,210.1 576,212.5 575.3,215.8 573.6,219.5 572.8,222.2 570.4,224.1 568.5,224.7 563.3,226 562,230.1 562.6,231.2 564.5,233 564.3,237.3 562.2,238.9 561.7,240.2 561.7,243 559.9,243.6 558.5,244.8 558.1,246 558.5,248 556.9,249.3 556,252.1 556.3,256 558.6,263 565.6,270.6 571.3,274.3 571.3,278.7 572,279.9 578.6,280.5 581.3,281.9 580.6,285.4 578.4,291.6 577.6,294.6 579.6,298.3 586,303.6 590.8,304.4 593,309.5 595,312.9 594.1,315.7 595.6,319.5 597.3,321.6 598.9,321.3 599.9,319.1 602.3,317.4 605.1,316.4 611.2,318.9 611.7,318.7 611.7,317.6 610.5,314.9 610.9,312.1 613.3,310.5 616.7,309.3 616.2,308 615.4,306 616.6,304.7 617.6,302 617.6,298 618,293.1 620.5,290.1 622.3,286.3 624.8,282.3 624.3,277 622.5,273.8 622.2,270.5 623,265.2 622.3,258 621.2,242.2 619.8,226.9 618.9,215.2 z" fill="#C0C0C0"/>
	<path id="IN" d="M622.9,216.1 624.4,217.1 625.5,216.8 627.6,214.9 630.1,213.1 644.4,212 662.8,210.2 664.4,225.7 669.3,268.3 668.7,271.2 670,272.8 670.2,274.1 667.9,275.7 664.3,277.4 661.1,277.8 660.6,282.6 655.9,286.2 653,290.2 653.2,292.6 652.7,294 649.2,294 647.8,292.3 642.6,295.3 642.8,298.4 641.9,298.6 641.4,297.7 639,296 635.4,297.5 634,300.4 632.8,299.8 631.2,298 626.8,298.5 621.1,299.5 618.6,300.8 618.6,298.2 619,293.5 621.3,290.6 623.1,286.7 625.8,282.5 625.3,276.7 623.5,273.6 623.2,270.4 624,265.1 623.3,258 622.4,245.4 619.9,215.3 z" fill="#C0C0C0"/>
	<path id="KS" d="M485.9,259.5 442.1,258.9 401.5,257.7 379.8,256.8 375.5,321.6 399.8,322.6 444.5,324.7 490.8,325.3 503.4,325 504.1,290 502.9,278.9 500.4,276.9 498,273.9 495.7,270.3 496.3,267.3 498,265.9 498,263.8 497.2,263.1 494.6,262.9 491.1,259.5 z" fill="#C0C0C0"/>
	<path id="KY" d="M607.2,331.8 619.8,331.1 619.9,327 624.2,327 654.6,323.8 699.7,319.5 705.3,315.9 709.2,313.8 709.3,311.9 715.3,304.1 719.4,300.5 721.5,298.1 718.2,296.1 715.7,293.4 712.7,289.6 712.2,287.4 709.6,286 708.7,284.1 708.5,278 705.9,276 704,274.9 703.5,272.6 702.2,272.8 700.2,274 697.7,276.7 695.8,275 693.3,274.5 690.9,275.9 688.6,275.9 686.8,273.9 681.2,273.8 679.4,269.3 676.5,267.8 674.4,268.6 670.2,268.8 669.7,270.9 670.9,272.4 671.2,274.5 668.4,276.5 664.6,278.3 662,278.7 661.5,283.2 656.6,286.8 654,290.5 654.2,292.7 653.3,295 648.8,294.9 647.5,293.6 643.6,295.8 643.8,299.1 641.4,299.7 640.6,298.3 638.9,297.1 636.2,298.2 634.4,301.7 632.2,300.7 630.8,299.1 627.1,299.5 621.5,300.5 618.7,301.8 617.5,305.2 616.5,306.2 618,309.9 613.8,311.3 611.9,312.7 611.5,314.9 612.7,317.3 612.7,319.5 611.1,319.9 605,317.4 602.7,318.3 600.7,319.7 599.9,321.5 601.6,323.9 600.7,325.7 600.6,329 598.2,330.3 596.1,332 z" fill="#C0C0C0"/>
	<path id="LA" d="M526.9,485.9 535,485.6 545.3,489.2 551.8,490.3 555.5,488.8 558.7,489.9 561.9,490.9 562.7,488.8 559.5,487.7 556.9,488.2 554.2,486.6 555,485.1 558.1,484.1 559.9,485.6 561.7,484.6 564.9,485.2 566.4,487.6 566.7,489.9 571.2,490.2 573,492 572.2,493.6 570.9,494.4 572.5,496 580.9,499.6 584.5,498.3 585.5,495.9 588.1,495.3 589.9,493.8 591.2,494.8 592,497.7 589.7,498.5 590.3,499.1 593.7,497.8 596,494.4 596.8,493.9 594.7,493.6 595.5,492 595.3,490.5 597.4,490 598.5,488.7 599.1,489.5 599.7,492.6 603.9,493.2 607.9,495.1 608.9,496.6 611.8,496.6 612.9,497.6 615.2,494.5 615.2,493 613.9,493 610.5,490.3 604.7,489.5 601.5,487.2 602.6,484.5 604.9,484.8 605.1,484.2 603.3,483.2 603.3,482.7 606.5,482.7 608.3,479.6 607,477.7 606.7,475 605.2,475.2 603.3,477.3 602.7,479.9 599.6,479.3 598.6,477.5 600.4,475.6 602.3,473.9 600.1,467.4 596.7,464 597.7,456.7 597.5,456.2 596.2,456.4 563.1,457.8 562.3,455.4 563.1,446.9 571.7,432.1 570.8,429.5 572.2,429.1 572.6,427.1 570.4,425.1 570.5,423.2 568.5,418.7 568.1,413.6 568.2,412.9 541.8,413.7 516.6,413.8 517,423.5 517.7,433 518.2,436.7 520.8,441.2 521.7,445.6 526,451.6 526.3,454.7 526.9,455.5 526.2,463.8 523.4,468.4 524.6,470.8 524.1,473.4 523.3,480.7 522,483.7 522.2,487.4 z" fill="#C0C0C0"/>
	<path id="MA" d="M887.5,172.5 887,170.2 887.8,168.7 890.7,167.2 891.5,170.3 891,172.1 888.6,173.6 888.6,174.6 890.5,173.1 894.4,168.6 898.3,166.7 902.5,165.2 902.2,162.8 901.2,159.9 899.3,157.5 897.5,156.7 895.4,156.9 894.9,157.4 895.9,158.7 897.4,157.9 899.5,159.5 900.3,162.2 898.5,164 896.2,165 892.6,164.5 888.7,158.5 886.4,155.9 884.6,155.9 883.5,156.7 881.6,154.1 881.9,152.6 884.3,147.4 881.4,143 877.7,144.8 875.9,147.7 857.6,152.4 843.8,154.9 843.2,165.5 843.9,170.4 865.9,165.6 877.1,162.8 879.1,164.4 882.5,168.7 885.4,173.4 zM900,173.9l2.2-0.7l0.5-1.7l1,0.1l1,2.3l-1.3,0.5l-3.9,0.1L900,173.9z M890.6,174.7l2.3-2.6h1.6 l1.8,1.5l-2.4,1l-2.2,1L890.6,174.7z" fill="#C0C0C0"/>
	<path id="MD" d="M834.8,264.1 836.5,260.3 837,255.5 830.7,256.6 824.9,256.9 821.1,240.1 818.8,234.6 817.3,230 795.1,234.3 757.5,241.9 759.5,252.3 764.3,247.4 766.8,246.7 768.2,245.2 770,242.5 771.6,243.2 774.2,243 776.8,240.9 778.8,239.4 780.9,238.8 782.4,239.9 785.1,241.3 787,243.1 788.3,244.5 793.1,246.1 792.5,249 798.3,251.1 800.4,248.5 804.1,251 802,254.3 801.3,257.6 799.5,260.2 799.5,262.3 799.8,263.1 801.8,264.4 805.2,265.5 809.5,265.4 812.6,266.4 814.7,266.7 815.7,264.6 814.2,262.5 814.2,260.7 811.8,258.6 809.7,253.1 811,247.8 810.8,245.7 809.5,244.4 C 809.5,244.4 811,242.8 811,242.1 811,241.5 811.5,240 811.5,240 L 813.4,238.7 815.3,237.1 815.8,238.1 814.3,239.7 813,243.4 813.3,244.5 815.1,244.8 815.6,250.3 813.5,251.3 813.8,254.9 814.3,254.7 815.4,252.8 817,254.6 815.4,255.9 815.1,259.3 817.7,262.7 821.6,263.2 823.2,262.4 826.4,266.6 827.4,267 zM820.3,264.3l1.1,2.5l0.2,1.8l1.1,1.9c0,0,0.9-0.9,0.9-1.2c0-0.3-0.7-3.1-0.7-3.1 l-0.7-2.3L820.3,264.3z" fill="#C0C0C0"/>
	<path id="ME" d="M865.8,91.9 867.3,92.3 867.3,89.7 868.1,84.2 870.7,79.5 872.2,75.5 870.3,73.1 870.3,67.1 871.1,66.1 871.9,63.4 871.7,61.9 871.5,57.1 873.3,52.3 876.2,43.4 878.3,39.2 879.6,39.2 880.9,39.4 880.9,40.5 882.2,42.8 884.9,43.4 885.7,42.6 885.7,41.6 889.7,38.7 891.5,36.9 893,37.1 899,39.5 900.9,40.5 910,70.4 916,70.4 916.8,72.3 917,77.1 919.9,79.4 920.7,79.4 920.9,78.9 920.4,77.8 923.2,77.3 925.1,79.4 927.4,83.1 927.4,85 925.3,89.7 923.4,90.3 920,93.4 915.2,98.9 C 915.2,98.9 914.6,98.9 913.9,98.9 913.3,98.9 912.9,96.8 912.9,96.8 L 911.1,97 910.1,98.5 907.7,100 906.7,101.5 908.3,103 907.8,103.6 907.3,106.3 905.4,106.1 905.4,104.5 905.1,103.2 903.6,103.5 901.8,100.3 899.7,101.6 901,103.1 901.3,104.2 900.5,105.5 900.8,108.6 901,110.2 899.4,112.8 896.5,113.3 896.2,116.2 890.9,119.3 889.6,119.8 888,118.3 884.9,121.9 885.9,125.1 884.4,126.4 884.2,130.8 883.1,137.1 880.9,136.2 880.4,133.1 876.4,132 876.2,129.5 864.5,92.07 z M902.3,107.5l1.5-1.5l1.4,1.1 l0.6,2.4l-1.7,0.9L902.3,107.5z M909,101.6l1.8,1.9c0,0,1.3,0.1,1.3-0.2s0.2-2,0.2-2l0.9-0.8l-0.8-1.8l-2,0.7L909,101.6z" fill="#C0C0C0"/>
	<path id="MI" d="M644.5,211 663.6,209.1 663.8,210.2 673.7,208.7 685.7,207 685.8,206.4 686,204.9 688.1,201.2 690.1,199.5 689.9,194.4 691.5,192.8 692.6,192.5 692.8,188.9 694.3,185.9 695.4,186.5 695.6,187.1 696.4,187.3 698.3,186.3 697.9,177.2 694.7,169 692.4,159.9 690,156.7 687.4,154.9 685.8,156 681.9,157.8 680,162.8 677.3,166.5 676.2,167.1 674.7,166.5 C 674.7,166.5 672.1,165 672.3,164.4 672.5,163.8 672.8,159.4 672.8,159.4 L 676.2,158.1 677,154.7 677.6,152.1 680,150.5 679.7,140.5 678.1,138.2 676.8,137.4 676,135.3 676.8,134.5 678.4,134.8 678.6,133.2 676,131 674.7,128.4 672.1,128.4 667.6,126.9 662.1,123.5 659.4,123.5 658.8,124.1 657.8,123.6 654.7,121.3 651.8,123.1 648.9,125.4 649.2,129 650.2,129.3 652.3,129.8 652.8,130.6 650.2,131.4 647.6,131.7 646.1,133.5 645.8,135.6 646.1,137.2 646.4,142.7 642.8,144.8 642.2,144.6 642.2,140.4 643.5,138 644.1,135.6 643.3,134.8 641.4,135.6 640.4,139.8 637.7,140.9 635.9,142.8 635.7,143.8 636.3,144.6 635.7,147.2 633.4,147.7 633.4,148.8 634.2,151.2 633.1,157.3 631.5,161.3 632.1,166 632.6,167.1 631.8,169.5 631.5,170.3 631.2,173 634.8,179 637.7,185.5 639.2,190.3 638.4,195 637.4,201 635,206.2 634.7,208.9 631.5,212 z M 611.2,138.6 609.9,137.5 608.1,127.1 604.4,125.8 602.7,123.5 590.1,120.7 587.3,119.6 579.2,117.4 571.4,116.4 567.5,111.1 568.2,110.6 570.9,109.8 574.5,107.5 574.5,106.5 575.1,105.9 581.1,104.9 583.5,103 587.9,100.9 588.1,99.6 590,96.7 591.8,95.9 593.1,94.1 595.4,91.8 599.8,89.4 604.5,88.9 605.6,90 605.3,91 601.6,92 600.1,95.1 597.8,95.9 597.3,98.3 594.9,101.5 594.6,104.1 595.4,104.6 596.4,103.5 600,100.6 601.3,101.9 603.6,101.9 606.8,102.9 608.3,104 609.8,107.1 612.5,109.8 616.4,109.6 617.9,108.6 619.5,109.9 621.1,110.4 622.4,109.6 623.5,109.6 625.1,108.6 629.1,105 632.5,103.9 639.1,103.6 643.6,101.7 646.2,100.4 647.7,100.6 647.7,106.3 648.2,106.6 651.1,107.4 653,106.9 659.1,105.3 660.2,104.2 661.7,104.7 661.7,111.7 664.9,114.8 666.2,115.4 667.5,116.4 666.2,116.7 665.4,116.4 661.7,115.9 659.6,116.5 657.3,116.3 654.1,117.8 652.3,117.8 646.5,116.5 641.3,116.7 639.4,119.3 632.4,119.9 630,120.7 628.9,123.8 627.6,124.9 627.1,124.7 625.6,123.1 621.1,125.5 620.5,125.5 619.4,123.9 618.6,124.1 616.7,128.5 615.7,132.5 612.5,139.4 z M581.6,82.1l1.8-2.1l2.2-0.8l5.4-3.9l2.3-0.6l0.5,0.5l-5.1,5.1l-3.3,1.9l-2.1,0.9L581.6,82.1z M667.8,114.2l0.6,2.5l3.2,0.2l1.3-1.2c0,0-0.1-1.5-0.4-1.6c-0.3-0.2-1.6-1.9-1.6-1.9l-2.2,0.2l-1.6,0.2l-0.3,1.1L667.8,114.2z" fill="#C0C0C0"/>
	<path id="MN" d="M464.6,66.79 464,70.7 464,80.97 465.6,86 467.5,89.32 468,99.25 469.8,112.7 471.6,120 472,126.4 472,131.7 470.4,133.5 468.6,134.8 468.6,136.3 469.5,138 473.6,141.5 474.3,144.7 474.3,180.6 534.6,180 555.8,179.3 555.3,173.3 553.5,171.2 546.3,166.6 542.7,161.3 539.3,160.4 537.3,157.6 534.1,157.6 530.6,153.8 530.1,146.8 530.2,142.9 531.7,139.9 531,137.2 528.2,134.1 530.4,128 535.8,124 537,122.6 536.8,114.6 537,111.6 539.6,108.6 543.4,105.7 544.7,105.5 549.2,100.5 551,99.7 553.3,95.8 555.7,92.2 558.8,89.6 563.6,87.6 572.8,83.5 576.7,81.7 577.3,79.4 572.9,79.8 572.2,80.9 571.6,80.9 569.8,77.8 560.9,78.1 559.9,78.9 558.9,78.9 558.4,77.6 557.6,75.8 555,76.3 551.8,79.5 550.2,80.3 547.1,80.3 544.5,79.3 544.5,77.2 543.2,77 542.7,77.5 540.1,76.2 539.6,73.3 538.1,73.8 537.6,74.8 535.2,74.3 529.9,71.9 526,69.3 523.1,69.3 521.8,68.3 519.5,68.9 518.4,70 518.1,71.3 513.3,71.3 513.3,69.2 507,68.9 506.7,67.4 501.9,67.4 500.3,65.8 498.8,59.7 498,54.2 496.1,53.4 493.8,52.9 493.2,53.1 492.9,61.3 462.8,61.27 z" fill="#C0C0C0"/>
	<path id="MO" d="M593.1,338.7 593.6,332.8 597.8,329.4 599.7,328.4 599.7,325.5 600.4,323.9 599.3,322.3 596.9,322.6 594.8,320.1 593.1,315.6 594,313 592,309.8 590.2,305.2 585.6,304.5 578.8,298.9 576.6,294.7 577.4,291.4 579.6,285.4 580.2,282.4 578.3,281.4 571.4,280.8 570.3,278.9 570.3,274.8 565,271.3 557.8,263.5 555.5,256.2 555,252 555.7,249.6 553.1,246.5 551.9,244.1 544.2,244.9 534.2,245.5 485.4,246.7 486.7,249.3 486.6,251.5 488.9,255.1 491.9,259 495,262 497.6,262.2 499,263.3 499,266.2 497.2,267.8 496.7,270.1 498.8,273.3 501.2,276.3 503.8,278.4 505.1,290 504.3,330 504.8,335.7 528.5,335.5 551.8,334.8 584.3,333.5 586.5,337.2 585.7,340.3 582.6,342.8 582.1,344.6 587.3,345.1 591.4,344 z" fill="#C0C0C0"/>
	<path id="MS" d="M604.3,472.5 606.9,468.3 608.7,469.1 615.5,467.2 617.6,467.5 619.1,468.3 624.3,468.3 624.7,466.7 623,451.9 620.2,432.9 621.2,387.8 621,371.1 621.2,364.8 616.4,365.1 596.8,366.7 583.8,367.1 583.6,370.3 580.8,371.6 578.2,376.7 578.7,378.3 578.8,380.7 575.9,381.8 572.4,386.9 573.2,389.2 570.2,391.7 569.2,397.4 568.6,399.3 570.2,401.8 568.7,403.2 570.2,406 570.5,410.2 569.3,412.7 569.1,413.6 569.5,418.6 571.5,423.1 571.4,424.8 573.7,426.8 573,429.9 572.1,430.2 572.7,432.1 564.1,447.1 563.3,455.3 563.8,456.8 588,456.1 596.2,455.4 598.1,455.1 598.7,456.5 597.7,463.6 601,466.9 603.2,473.3 z" fill="#C0C0C0"/>
	<path id="MT" d="M361.1,70.77 355.8,127.9 354.5,143.1 295.4,136.5 246.4,129.4 245,140.6 243.1,138.9 242.7,136.4 241.4,134.5 238.1,136 237.4,138.5 235.1,138.8 231.3,137.2 227.2,137.3 224.8,138 221.6,136.5 218.6,136.7 216.5,138.6 215.6,138 214.9,134.6 215.6,131.4 212.9,128.2 209.6,125.7 207.1,113.1 207,107.8 205.4,107 204.8,108 200.3,111.2 199.1,111.1 196.8,108.3 196.6,105.5 203.6,88.35 203,85.68 199.5,84.56 199.1,83.65 196.4,80.15 191.8,69.74 188.6,68.16 186.8,63.9 188.1,59.27 184.9,51.7 189.3,30.41 222,37.3 240.4,40.7 272.7,46 302,50 331.2,53.5 362,56.57 z" fill="#C0C0C0"/>
	<path id="NC" d="M786.7,357.7 774,350 770.9,349.2 754.3,351.3 752.7,348.3 749.9,346.1 733.2,346.6 725.8,347.5 716.6,352 709.8,354.7 703.3,355.9 689.9,357.3 690,353.2 691.7,351.9 694.4,351.2 695.1,347.4 699,344.9 702.9,343.4 707.4,339.7 711.8,337.4 712.5,334.2 716.6,330.4 717.3,331.4 719.8,331.6 722.2,328 723.9,327.6 726.5,327.9 728.3,323.9 730.8,321.5 731.3,319.7 731.4,316.2 735.8,316.3 774.3,310.7 831.8,298.4 833.8,303.2 837.4,309.7 839.8,312.1 840.4,314.4 838,314.6 838.8,315.2 838.5,319.4 835.9,320.7 835.3,322.8 834,325.7 830.3,327.3 827.9,327 826.4,326.8 824.8,325.5 825.1,326.8 825.1,327.8 827,327.8 827.8,329.1 825.9,335.4 830.1,335.4 830.7,337 833,334.7 834.3,334.2 832.4,337.8 829.3,342.6 828,342.6 826.9,342.1 824.2,342.7 819,345.1 812.5,350.4 809.1,355.1 807.2,361.6 806.7,364 802,364.5 796.9,366 z M836,331.5l2.6-2.5 l3.2-2.6l1.5-0.6l0.2-2l-0.6-6.1l-1.5-2.3l-0.6-1.9l0.7-0.2l2.7,5.5l0.4,4.4l-0.2,3.4l-3.4,1.5l-2.8,2.4l-1.1,1.2L836,331.5z" fill="#C0C0C0"/>
	<path id="ND" d="M471,126.4 470.6,120.2 468.8,112.9 467,99.29 466.5,89.59 464.6,86.41 463,81.09 463,70.68 463.6,66.83 461.8,61.29 433.2,60.7 414.6,60.1 388.1,58.8 362.9,56.64 362,71.06 357.3,122 414.1,125.9 471,127.6 z" fill="#C0C0C0"/>
	<path id="NE" d="M470.3,204.3 469.3,202 468.8,200.4 465.9,198.8 461.1,197.3 458.9,196.1 456.3,196.2 452.6,196.6 448.4,197.8 442.4,193.7 440.2,191.7 429.5,192.3 388,189.9 352.4,187.7 348.1,231.4 381.2,234.7 379.8,255.8 401.5,256.8 442.1,258 485.9,258.6 490.4,258.6 488.2,255.6 485.6,251.7 485.7,249.4 484.3,246.7 482.4,241.5 482,234.8 480.6,230.7 480.1,225.7 477.8,222 476.8,217.3 474,209.4 473,204.1 z" fill="#C0C0C0"/>
	<path id="NH" d="M881.7,141.3 882.8,138.1 880.1,136.9 879.6,133.8 875.5,132.7 875.2,129.7 863.5,92.22 862.8,92.3 862.2,93.9 861.6,93.4 860.6,92.4 859.1,94.3 858.9,96.59 859.4,105 861.3,107.8 861.3,112.1 857.4,116.9 855,117.8 855,118.5 856.1,120.4 856.1,129 855.3,138.2 855.1,142.9 856.1,144.3 855.9,149 855.4,150.5 856.4,151.6 861.5,150.4 875.3,146.9 877,144 881,142.1 z" fill="#C0C0C0"/>
	<path id="NJ" d="M823.7,228.3 823.8,226.8 826.5,225.5 828.2,222.7 829.9,220.3 833.2,217.1 833.2,215.9 827.1,211.8 826.1,209.1 823.4,208.8 823.3,207.9 822.6,205.7 824.8,204.6 825,201.7 823.7,200.4 823.9,199.2 825.8,196.1 825.8,193 828.3,189.9 833.9,192.4 840.3,194.3 842.8,195.5 842.9,197.3 842.4,200 842.8,204.5 840.7,206.4 839.6,207.4 840.1,207.9 842.8,207.6 843.9,206.8 845.5,210.2 845.7,219.6 846.3,220.7 845.2,226.2 842.1,232.7 839.4,236.7 838.6,241.5 836.5,243.9 835.7,243.9 835.4,241.2 836.2,240.2 836,238.7 832,238.1 827.2,235.8 824,232.9 823,230.9 z" fill="#C0C0C0"/>
	<path id="NM" d="M270.2,429.4 253.5,426.8 252.3,436.4 236.5,434.4 242.5,394.7 249.5,341.5 253.9,310.6 287.9,314.5 325.3,318.9 357.3,321.7 357,332.5 355.6,332.4 348.2,430.1 319.8,428.3 281.7,424.6 282.4,430.9 z" fill="#C0C0C0"/>
	<path id="NV" d="M123.1,173.6 161.8,182.1 187.8,187.3 177.2,240.4 171.8,270.2 168.5,285.7 166.4,296.8 163.8,313.2 162.1,316.3 160.5,316.2 159.3,313.6 156.5,313.1 155.2,312 153.4,312.1 152.5,312.9 150.7,314.2 150.4,321.5 150.1,323 149.6,335.4 148.5,337.2 131.8,311.7 89.7,249.6 77.27,230.6 85.82,198 93.83,166.7 z" fill="#C0C0C0"/>
	<path id="NY" d="M843.4,200 843.9,197.3 843.7,194.9 840.7,193.4 834.2,191.4 828.2,188.8 827.6,188.4 824.9,188.1 822.9,186.6 820.8,180.7 817.5,180.2 815.1,177.8 776.7,185.9 745.1,191.9 744.6,185.4 746.2,184.2 747.5,183.1 748.5,181.5 750.3,180.4 752.2,178.6 752.7,177 754.8,174.3 755.9,173.3 755.7,172.3 754.4,169.2 752.6,169 750.7,162.9 753.6,161.1 758,159.6 762,158.3 765.2,157.8 771.5,157.6 773.4,158.9 775,159.1 777.1,157.8 779.7,156.7 784.9,156.2 787,154.4 788.8,151.2 790.4,149.3 792.5,149.3 794.4,148.2 794.6,145.9 793.1,143.8 792.8,142.3 793.9,140.2 793.9,138.7 792.1,138.7 790.3,137.9 789.5,136.8 789.3,134.2 795.1,128.7 795.7,127.9 797.2,125 800.1,120.5 802.8,116.8 804.9,114.4 807.3,112.6 810.4,111.4 815.9,110.1 819.1,110.3 823.6,108.8 831,106.6 831.7,111.5 834.1,118 834.9,123 833.9,127.2 836.5,131.7 837.3,133.7 836.4,136.9 840.1,138.6 842.8,148.8 842.8,154.6 842.2,165.5 843,170.9 843.7,174.5 845.2,181.8 845.2,189.9 844.1,192.2 846.2,194.9 846.7,195.8 844.8,197.6 845.1,198.9 846.4,198.6 847.9,197.3 850.2,194.7 851.3,194.1 852.9,194.7 855.2,194.9 863.1,191 866,188.3 867.3,186.8 871.5,188.4 868.1,192 864.2,194.9 857.1,200.2 854.5,201.2 848.7,203.1 844.7,204.2 843.7,203.8 z" fill="#C0C0C0"/>
	<path id="OH" d="M663.8,211.2 665.5,226.7 670.3,267.8 674.2,267.6 676.5,266.8 680.1,268.6 681.8,272.8 687.2,272.9 689,274.9 690.7,274.9 693.1,273.5 696.2,274 697.7,275.3 699.5,273.3 701.8,271.9 704.2,271.5 704.8,274.2 706.4,275.2 709,277.2 709.8,277.4 711.8,277.3 713,276.7 713,274.6 714.7,273.1 714.8,268.3 715.9,264.1 717.8,262.8 718.8,263.5 719.8,264.6 720.5,264.8 720.9,264.4 720,261.7 720,259.5 721.1,258.1 723.6,254.5 724.9,253 727.1,253.5 729.2,252 732.2,248.7 734.4,245 734.6,239.6 735.1,234.6 735.1,230 733.9,226.8 735.1,225 736.4,223.8 735.8,221 731.5,195.4 725.3,199.1 721.4,201.4 718,205.1 714,209 710.8,209.8 707.9,210.3 702.4,212.9 700.3,213.1 696.9,210 691.7,210.6 689.1,209.1 686.9,207.8 z" fill="#C0C0C0"/>
	<path id="OK" d="M411.9,334.9 410.1,359.2 409.2,377.2 409.4,378.8 413.4,382.4 415.1,383.3 416,383.3 416.9,381.2 418.4,383.1 420,383.2 420.3,383 420.5,381.9 423.3,383.3 422.9,386.8 426.7,387.3 429.2,388.3 433.4,388.9 435.7,390.5 438.2,388.8 441.7,389.5 443.9,392.6 445.1,392.7 445.1,395 447.2,395.7 449.7,393.6 451.5,394.2 454.2,394.3 454.9,396.6 459.3,398.4 461,398.1 462.9,393.9 464.2,393.9 465.3,396 469.5,396.8 472.9,398.1 475.9,398.9 477.5,398.2 478.2,395.5 482.7,395.5 484.6,396.4 487.3,394.5 488.7,394.5 489.3,395.9 492.9,395.9 494.9,394.1 497.2,394.7 498.9,396.9 501.9,398.6 505.3,399.5 507.2,400.7 506.9,363.1 505.5,352.2 505.4,343.6 503.9,337 503.3,330.2 503.4,325.9 490.8,326.2 444.5,325.7 399.8,323.6 358.3,321.8 357.9,332.5 z" fill="#C0C0C0"/>
	<path id="OR" d="M67.44,158.9 95.68,166.1 123.2,172.6 140.2,176.3 149,141.2 150.2,136.8 152.6,131.3 151.9,130 149.4,130.1 148.1,128.3 148.7,126.8 149.1,123.5 153.8,117.8 155.7,116.9 156.6,116.1 157.3,113.4 158.1,112.3 162,106.6 165.7,102.6 165.9,99.34 162.5,96.85 161.3,92.3 148.2,88.47 132.9,85 118.1,85.37 117,84.06 111.9,85.9 107.4,85.42 105,83.84 103.7,84.38 99.02,84.09 97.06,82.66 92.22,80.89 91.12,80.82 86.67,79.55 84.91,81.07 78.65,80.83 73.34,76.98 73.55,67.7 71.5,64.2 67.4,63.6 66.7,61.1 64.3,60.6 58.5,62.7 56.2,69.2 53,79.2 49.8,85.7 44.8,99.8 38.3,113.4 30.2,126 28.3,128.9 27.5,137.5 26.2,143.5 28.91,147 z" fill="#C0C0C0"/>
	<path id="PA" d="M736.6,192.2 737.9,191.7 743.6,186.2 744.3,193.1 777.8,186.6 814.7,178.8 817,181.1 820.1,181.5 822.1,187.1 824.5,189 827.3,189.4 827.4,189.5 824.8,192.7 824.8,195.8 822.9,198.9 822.7,200.8 824,202.1 823.8,204 821.4,205.1 822.4,208.5 822.6,209.6 825.4,209.9 826.3,212.4 832.2,216.3 832.2,216.7 829.1,219.7 827.6,221.9 825.9,224.7 823.2,225.9 821.8,226.2 819.7,227.5 818.1,228.9 795.7,233.2 757,241 745.7,242.4 741.8,243.1 736.7,220.7 732.4,194.8 z" fill="#C0C0C0"/>
	<path id="RI" d="M873.6,175.7 872.8,171.3 871.2,165.3 876.9,163.8 878.4,165.1 881.8,169.4 884.6,173.8 881.8,175.2 880.5,175 879.4,176.8 877,178.7 874.2,179.8 z" fill="#C0C0C0"/>
	<path id="SC" d="M759,413.6 756.9,412.6 755,407 752.5,404.7 750,404.2 748.5,399.6 745.5,393.1 741.3,391.3 739.4,389.5 738.2,386.9 735.8,384.9 733.5,383.6 731.3,380.7 728.1,378.3 723.7,376.6 723.3,375.2 721,372.4 720.5,370.9 716.7,365.5 713.3,365.6 709.4,363.1 708.2,361.9 708,360.5 708.6,358.9 711.3,357.6 710.5,355.6 716.9,352.9 726.1,348.4 733.2,347.5 749.6,347 751.9,348.9 753.7,352.4 758.3,351.6 770.9,350.1 773.6,350.9 786.1,358.3 796.2,366.6 790.9,372 788.3,378.1 787.8,384.4 786.2,385.2 785.1,387.9 782.7,388.5 780.6,392.1 777.9,394.8 775.6,398.2 774,399 770.4,402.4 767.5,402.6 768.5,405.8 763.5,411.1 761.2,412.7 z" fill="#C0C0C0"/>
	<path id="SD" d="M471,181.1 470.1,184.3 470.5,187.3 473.1,189.3 471.9,194.7 470.1,198.8 471.6,202.1 472.3,203.2 471,203.3 470.3,201.7 469.7,199.7 466.4,197.9 461.6,196.4 459.1,195.1 456.2,195.2 452.3,195.6 448.5,196.8 443.2,193 440.5,190.6 429.6,191.4 388.1,189 352.5,186.8 354,162 356.8,128 357.2,123 414.1,126.9 471,128.6 471,131.3 469.7,132.8 467.7,134.3 467.6,136.5 468.7,138.7 472.8,142.1 473.3,144.8 473.3,180.7 z" fill="#C0C0C0"/>
	<path id="TN" d="M670.8,359.6 657.7,360.8 634.4,363 596.8,365.7 585,366.1 585.9,365.5 586.8,361 585.6,357.4 589.5,355.1 589.9,352.6 591.1,348.3 594.1,338.8 594.6,333.2 594.9,333 607.2,332.8 620.8,332 620.9,328.1 624.4,328 654.8,324.7 708.8,319.5 719.1,318 726.7,317.8 729.1,315.9 730.4,316.2 730.3,319.5 729.9,321.1 727.5,323.3 725.9,326.9 723.9,326.5 721.5,327.4 719.3,330.7 717.9,330.5 717.1,329.3 716,329.7 711.7,333.7 710.9,336.8 706.7,339 702.4,342.6 698.6,344.1 694.2,346.9 693.6,350.5 691.1,351 689.1,352.7 688.9,357.5 z" fill="#C0C0C0"/>
	<path id="TX" d="M282.8,425.6 319.8,429.2 349.1,431.1 356.5,333.4 410.9,335.8 409.2,359.1 408.2,377.1 408.4,379.1 412.8,383.2 414.8,384.3 416.6,384.3 417.1,383.1 417.8,384 420.2,384.2 421.3,383.6 421.3,383.4 422.3,383.9 421.9,387.6 426.4,388.3 428.8,389.2 433,389.9 435.6,391.7 438.4,389.8 441.1,390.4 443.3,393.5 444.1,393.6 444.1,395.7 447.4,396.8 449.9,394.7 451.4,395.2 453.5,395.3 454.1,397.4 459.3,399.4 461.6,398.9 463.5,394.9 463.6,394.9 464.7,396.8 469.3,397.7 472.7,399 475.9,400 478.3,398.8 479,396.5 482.6,396.5 484.7,397.5 487.7,395.5 488.1,395.5 488.6,396.9 493.3,396.9 495.2,395.1 496.5,395.5 498.2,397.6 501.5,399.5 504.9,400.5 507.4,401.9 510.1,403.9 513.2,402.7 515.3,403.5 516,423.5 516.7,433 517.3,437.1 519.9,441.5 520.8,446 525,451.9 525.3,455 525.9,455.8 525.2,463.5 522.3,468.3 523.6,470.9 523.1,473.3 522.3,480.5 521,483.5 521.3,487.7 515.7,489.3 505.8,493.8 504.8,495.7 502.2,497.6 500.1,499.1 498.8,499.9 493.1,505.2 490.4,507.3 485.1,510.5 479.4,512.9 473.1,516.3 471.3,517.8 465.5,521.4 462.1,522 458.2,527.5 454.2,527.8 453.2,529.7 455.5,531.6 454,537.1 452.7,541.6 451.6,545.5 450.8,550 451.6,552.4 453.4,559.4 454.4,565.5 456.2,568.2 455.2,569.7 452.1,571.6 446.4,567.7 440.9,566.6 439.6,567.1 436.4,566.5 432.2,563.4 427,562.3 419.4,558.9 417.3,555 416,548.5 412.8,546.6 412.2,544.3 412.8,543.7 413.1,540.3 411.8,539.7 411.2,538.7 412.5,534.3 410.9,532 407.7,530.7 404.3,526.3 400.7,519.7 396.5,517.1 396.7,515.2 391.4,502.9 390.6,498.7 388.8,496.8 388.6,495.3 382.6,490 380,486.9 380,485.8 377.4,483.7 370.6,482.6 363.2,482 360.1,479.7 355.6,481.5 352,483 349.7,486.2 348.7,489.9 344.3,496 341.9,498.4 339.3,497.4 337.5,496.3 335.6,495.7 331.7,493.4 331.7,492.8 329.9,490.9 324.7,488.8 317.3,481 315,476.3 315,468.2 311.8,461.7 311.3,459 309.7,458 308.6,455.9 303.6,453.8 302.3,452.2 295.2,444.3 293.9,441.1 289.2,438.8 287.7,434.4 285.1,431.5 283.4,431 zM457.2,567.3l-0.6-7.1l-2.7-7.2l-0.6-7l1.5-8.2l3.3-6.9l3.5-5.4l3.2-3.6l0.6,0.2 l-4.8,6.6l-4.4,6.5l-2,6.6l-0.3,5.2l0.9,6.1l2.6,7.2l0.5,5.2l0.2,1.5L457.2,567.3z" fill="#C0C0C0"/>
	<path id="UT" d="M228.4,305.9 253,309.5 254.9,295.8 261.9,245.3 264.2,223.3 232,219.8 234.2,206.7 236,196.1 201.3,190 188.8,187.5 178.2,240.4 172.8,270.4 169.5,285.8 167.8,295 z" fill="#C0C0C0"/>
	<path id="VA" d="M834.7,265.2 834.5,268 831.6,271.8 831.2,276.4 831.7,279.8 829.9,284.8 827.7,286.7 826.2,282.1 826.6,276.7 828.2,272.5 828.9,269.2 828.8,267.5 z M 774.4,309.8 735.8,315.4 731,315.3 728.8,315 726.3,316.9 719,317 708.7,318.6 702,319.2 706.1,316.6 710.2,314.3 710.2,312.2 715.9,304.9 720,301.2 722.2,298.7 725.8,303 729.6,303.9 732.3,302.9 734.3,301.4 736.7,302.6 741.3,301.3 743,296.9 745.4,297.6 748.6,295.3 750.2,295.7 753,292.5 753.2,289.8 752.4,288.6 757.2,278.1 759,272.9 759.5,268.2 760.2,268 761.3,269.7 762.8,270.9 766.7,270.7 768.4,262.6 771.4,262 772.2,259.4 775,257.2 776.1,255.1 777.9,250.8 778,246.2 781.6,247.6 788.2,250.7 788.5,245.5 791.9,246.7 791.3,249.6 799.9,252.7 801.3,254.5 800.5,257.8 799.2,259.1 798.7,260.8 799.2,263.2 801.2,264.5 805.1,265.9 808,266.9 812.9,267.8 815.1,269.9 818.3,270.3 819.2,271.5 818.8,276.2 820.2,277.3 819.7,279.2 820.9,280 820.7,281.4 818,281.3 818.1,282.9 820.4,284.4 820.5,285.8 822.3,287.6 822.8,290.1 820.2,291.5 821.8,293 827.6,291.3 831.3,297.5 z" fill="#C0C0C0"/>
	<path id="VT" d="M832.7,111.3 835.1,117.8 835.9,123.1 834.9,127 837.4,131.4 838.3,133.7 837.6,136.3 840.9,137.8 843.8,148.6 843.8,153.9 855.3,151.8 854.3,150.7 854.9,148.8 855.1,144.5 854.1,143.1 854.3,138.4 855.1,129.1 855.1,120.6 854,118.8 854,117.2 856.8,116.1 860.3,111.7 860.3,108.1 858.4,105.4 858.1,99.61 832,106.4 z" fill="#C0C0C0"/>
	<path id="WA" d="M74.5,67.7 72.2,63.4 68.1,62.7 67.7,60.3 65.2,59.7 62.3,59.2 60.5,60.2 58.2,57.3 58.5,54.4 61.2,54.1 62.8,50.1 60.2,49 60.4,45.3 64.8,44.7 62.1,42 60.6,34.9 61.2,32 61.2,24.1 59.4,20.9 61.7,11.5 63.8,12 66.2,14.9 68.9,17.5 72.1,19.4 76.6,21.5 79.7,22.1 82.6,23.6 86,24.6 88.3,24.4 88.3,22 89.6,20.9 91.7,19.6 92,20.7 92.3,22.5 90,23 89.7,25.1 91.5,26.6 92.6,29 93.2,30.9 94.7,30.7 94.9,29.4 93.9,28.1 93.4,24.9 94.2,23.1 93.6,21.6 93.6,19 95.4,15.4 94.3,12.8 91.9,8 92.2,7.2 93.6,6.4 98,7.9 107.7,10.6 116.3,12.5 136.3,18.2 159.3,23.9 174.3,27.39 169.5,44.95 165,65.78 161.6,82.03 161.2,91.21 161.2,91.21 148.3,87.49 133,84.02 118.5,84.34 117.4,82.81 111.7,84.9 107.8,84.48 105.2,82.69 103.5,83.34 99.35,83.09 97.63,81.77 92.47,79.95 91.29,79.79 86.49,78.4 84.57,80.05 78.92,79.8 74.31,76.45 74.5,67.7 z M 84.1,12.3 86.1,12.1 86.6,13.5 88.1,11.9 H 90.4 L 91.2,13.4 89.7,15.1 90.3,15.9 89.6,17.9 88.2,18.3 C 88.2,18.3 87.3,18.4 87.3,18.1 87.3,17.8 88.8,15.5 88.8,15.5 L 87.1,14.9 86.8,16.4 86.1,17 84.6,14.7 84.1,12.3 z" fill="#C0C0C0"/>
	<path id="WI" d="M541.4,109.9 544.3,110.4 547.2,109.8 554.6,106.6 557.5,104.7 559.6,103.9 561.5,105.4 560.4,106.5 558.5,109.6 557.9,111.5 558.9,112.1 560.7,111.1 561.8,110.9 564.5,111.7 565.1,112.8 566.2,113 566.8,111.9 570.8,117.2 579,118.4 587.2,120.6 589.8,121.7 602.1,124.3 603.7,126.6 607.3,127.8 609,138 610.6,139.4 612.1,140.3 611,142.6 609.2,144.2 607.1,148.9 605.8,151.3 606,153.1 607.5,153.4 608.6,151.5 610.1,150.7 610.9,148.4 612.8,146.6 615.5,142.6 619.7,136.3 620.5,135.8 620.8,136.8 620.6,139.1 617.7,145.9 615,151.6 614.5,154.8 613.9,157.4 614.7,158.7 614.5,161.4 612.6,163.8 612.1,165.6 612.7,169.2 613.3,172.6 611.8,175.2 611,178.1 610,181.2 611.1,183.6 611.7,189.7 613.3,194.2 613.1,197.2 597.2,199 579.7,200 567,200 566.3,198.5 563.4,198.1 560.8,196.8 558.5,193.1 558.2,189.5 560.2,186.6 559.7,185.2 557.6,183 556.8,179.7 556.2,172.9 554.1,170.4 547.1,165.9 543.3,160.5 539.9,159.5 537.7,156.7 534.5,156.7 531.6,153.4 531.1,146.9 531.2,143.1 532.7,140 531.9,136.8 529.4,134 531.2,128.6 536.4,124.8 538,122.9 537.8,114.8 538,112 540.4,109.2 z" fill="#C0C0C0"/>
	<path id="WV" d="M758.9,254.3 764.7,248.3 767.3,247.5 768.9,246 770.4,243.8 771.5,244.1 774.6,243.9 779.2,240.3 780.7,239.8 782,240.8 784.6,242 787.6,245 787.2,249.3 781.8,246.7 777,244.9 776.9,250.8 774.3,256.5 771.4,258.9 770.6,261.2 767.6,261.7 765.9,269.8 763.1,270 762,269 760.8,267 758.6,267.5 758.1,272.6 756.3,277.7 751.3,288.7 752.2,290.1 752.1,292.1 749.9,294.6 748.3,294.2 745.2,296.5 742.4,295.7 740.6,300.6 736.8,301.6 734.3,300.3 731.8,302.2 729.5,302.9 726.3,302.1 722.5,297.6 719,295.4 716.5,292.9 713.6,289.2 713.1,286.9 710.3,285.2 709.7,283.9 709.5,278.3 709.8,278.4 712.2,278.2 714,277.2 714,275 715.7,273.5 715.8,268.3 716.7,264.7 717.8,264 718.2,264.3 719.2,265.4 720.9,265.9 722,264.6 721,261.5 721,259.9 724.1,255.3 725.3,254 727.3,254.5 729.9,252.7 733,249.3 735.4,245.2 735.6,239.6 736.1,234.8 736.1,229.9 735,226.9 735.9,225.6 736.7,224.9 741,244.2 745.3,243.4 756.5,242.1 z" fill="#C0C0C0"/>
	<path id="WY" d="M353,161.9 351.5,187.3 347.1,231.3 344.4,231 261.1,221.9 233.2,218.9 235.2,206.9 242.1,165.9 245.9,141.7 247.2,130.5 295.4,137.5 354.5,144 z" fill="#C0C0C0"/>
	<path id="DC" d="M 807,260l-6.26,-3.18l-5.97,3.60l1.09,-6.93l-5.27,-4.56l6.93,-1.11l2.71,-6.42l3.19,6.25l6.94,0.59l-4.96,4.97 L 807,260 z" stroke="#FFFFFF" fill="#C0C0C0"/>
	<!-- <circle id="NE-1" fill="#FFFFFF" cx="459" cy="239" r="14"/> -->
	<!-- <circle id="ME-2" fill="#FFFFFF" cx="884" cy="96" r="14"/> -->
	<!-- <circle cx="459" cy="239" fill="#d2691e" id="NE-1" r="14" stroke="#000000" stroke-miterlimit="3.85" stroke-width="0.8" /> -->
	<!-- <circle cx="884" cy="96" fill="#d2691e" id="ME-2" r="14" stroke="#000000" stroke-miterlimit="3.85" stroke-width="0.8" /> -->
</g>
<g id="numbers" font-family="Arial" font-size="28" font-weight="bold">
	<text id="AK" x="110" y="504">3</text>
	<text id="HI" x="261" y="565">4</text>
	<text id="WA" x="105" y="62">12</text>
	<text id="OR" x="88" y="136">7</text>
	<text id="CA" x="55" y="298">55</text>
	<text id="NV" x="120" y="242">6</text>
	<text id="UT" x="209" y="265">6</text>
	<text id="NM" x="290" y="381">5</text>
	<text id="ID" x="183" y="162">4</text>
	<text id="MT" x="270" y="100">3</text>
	<text id="WY" x="290" y="191">3</text>
	<text id="CO" x="311" y="283">9</text>
	<text id="AZ" x="182" y="368">11</text>
	<text id="TX" x="410" y="458">38</text>
	<text id="OK" x="451" y="370">7</text>
	<text id="KS" x="434" y="303">6</text>
	<!-- <text id="NE" x="411" y="232">4</text> -->
	<text id="NE" x="411" y="232">5</text>
	<text id="SD" x="405" y="170">3</text>
	<text id="ND" x="405" y="103">3</text>
	<text id="MN" x="484" y="129">10</text>
	<text id="WI" x="561" y="163">10</text>
	<text id="IL" x="579" y="261">20</text>
	<text id="IA" x="513" y="224">6</text>
	<text id="MO" x="525" y="306">10</text>
	<text id="AR" x="534" y="384">6</text>
	<text id="LA" x="536" y="452">8</text>
	<text id="MS" x="587" y="428">6</text>
	<text id="AL" x="641" y="422">9</text>
	<text id="GA" x="697" y="419">16</text>
	<text id="FL" x="743" y="505">29</text>
	<text id="SC" x="745" y="380">9</text>
	<text id="NC" x="763" y="342">15</text>
	<text id="TN" x="633" y="353">11</text>
	<text id="KY" x="666" y="311">8</text>
	<text id="IN" x="630" y="262">11</text>
	<text id="MI" x="645" y="193">16</text>
	<text id="OH" x="685" y="248">18</text>
	<text id="WV" x="730" y="281">5</text>
	<text id="VA" x="765" y="294">13</text>
	<text id="PA" x="764" y="220">20</text>
	<text id="NY" x="798" y="167">29</text>
	<!-- <text id="ME" x="884" y="74">3</text> -->
	<text id="ME" x="884" y="90">4</text>
	<text id="NH" x="800" y="58" font-size="22">NH 4</text>
	<text id="VT" x="790" y="82" font-size="22">VT 3</text>
	<text id="MA" x="927" y="164" font-size="22">MA 11</text>
	<text id="RI" x="925" y="199" font-size="22">RI 4</text>
	<text id="CT" x="918" y="228" font-size="22">CT 7</text>
	<text id="NJ" x="897.5" y="260" font-size="22">NJ 14</text>
	<text id="DE" x="891" y="284" font-size="22">DE 3</text>
	<text id="MD" x="883" y="305" font-size="22">MD 10</text>
	<text id="DC" x="864" y="327" font-size="22">DC 3</text>
	<!-- <text id="NE-1" x="453" y="247" font-size="25">1</text> -->
	<!-- <text id="ME-2" x="878" y="104" font-size="25">1</text> -->
</g>
<g id="shapes">
	<path id="lines" d="M844,62l13,29M832,86l8,17M889,153l34,3M882,178l41,12M866,184l51 33M845,230l50,22M837,250l51,26M833,261l46,33M800,251l61,61" stroke="#000" stroke-width="1.6"/>
	<!-- <path id="frames" fill="none" stroke="#A9A9A9" stroke-width="2" d="M215,493v55l36,45 M0,425h147l68,68h85l54,54v46"/> -->
</g>
</svg>